<mxfile host="app.diagrams.net" agent="Mozilla/5.0 (Windows NT 10.0; Win64; x64) AppleWebKit/537.36 (KHTML, like Gecko) Chrome/134.0.0.0 Safari/537.36 Edg/134.0.0.0" version="26.2.4">
  <diagram name="Page-1" id="YjhRPU8jZfClRCUj_fMj">
    <mxGraphModel dx="1392" dy="832" grid="1" gridSize="10" guides="1" tooltips="1" connect="1" arrows="1" fold="1" page="1" pageScale="1" pageWidth="1100" pageHeight="850" math="0" shadow="0">
      <root>
        <mxCell id="0" />
        <mxCell id="1" parent="0" />
        <mxCell id="ZttYnQM5zLu4vW2uQyu7-1" value="AWS Virtual Private Cloud (VPC)" style="whiteSpace=wrap;strokeWidth=2;" vertex="1" parent="1">
          <mxGeometry x="20" y="63" width="720" height="600" as="geometry" />
        </mxCell>
        <mxCell id="ZttYnQM5zLu4vW2uQyu7-2" value="Private Subnet" style="whiteSpace=wrap;strokeWidth=2;labelPosition=center;verticalLabelPosition=top;align=center;verticalAlign=bottom;" vertex="1" parent="1">
          <mxGeometry x="47" y="88" width="663" height="128" as="geometry" />
        </mxCell>
        <mxCell id="ZttYnQM5zLu4vW2uQyu7-3" value="Public Subnet" style="whiteSpace=wrap;strokeWidth=2;labelPosition=center;verticalLabelPosition=bottom;align=center;verticalAlign=top;" vertex="1" parent="1">
          <mxGeometry x="179" y="288" width="256" height="285" as="geometry" />
        </mxCell>
        <mxCell id="ZttYnQM5zLu4vW2uQyu7-4" value="Internet Gateway" style="whiteSpace=wrap;strokeWidth=2;" vertex="1" parent="1">
          <mxGeometry x="214" y="464" width="186" height="54" as="geometry" />
        </mxCell>
        <mxCell id="ZttYnQM5zLu4vW2uQyu7-5" value="NAT Gateway" style="whiteSpace=wrap;strokeWidth=2;" vertex="1" parent="1">
          <mxGeometry x="230" y="325" width="154" height="54" as="geometry" />
        </mxCell>
        <mxCell id="ZttYnQM5zLu4vW2uQyu7-6" value="EKS Node Group (Auto Scaling)" style="whiteSpace=wrap;strokeWidth=2;" vertex="1" parent="1">
          <mxGeometry x="82" y="113" width="260" height="78" as="geometry" />
        </mxCell>
        <mxCell id="ZttYnQM5zLu4vW2uQyu7-7" value="EKS Pods" style="whiteSpace=wrap;strokeWidth=2;" vertex="1" parent="1">
          <mxGeometry x="420" y="125" width="122" height="54" as="geometry" />
        </mxCell>
        <mxCell id="ZttYnQM5zLu4vW2uQyu7-8" value="VPC Gateway Endpoint for S3" style="whiteSpace=wrap;strokeWidth=2;" vertex="1" parent="1">
          <mxGeometry x="470" y="313" width="260" height="78" as="geometry" />
        </mxCell>
        <mxCell id="ZttYnQM5zLu4vW2uQyu7-9" value="Amazon S3 Bucket" style="whiteSpace=wrap;strokeWidth=2;" vertex="1" parent="1">
          <mxGeometry x="800" y="464" width="191" height="54" as="geometry" />
        </mxCell>
        <mxCell id="ZttYnQM5zLu4vW2uQyu7-10" value="Private Network" style="curved=1;startArrow=none;endArrow=block;exitX=1.01;exitY=1;entryX=0.5;entryY=0.01;rounded=0;" edge="1" parent="1" source="ZttYnQM5zLu4vW2uQyu7-7" target="ZttYnQM5zLu4vW2uQyu7-8">
          <mxGeometry relative="1" as="geometry">
            <Array as="points">
              <mxPoint x="600" y="216" />
            </Array>
          </mxGeometry>
        </mxCell>
        <mxCell id="ZttYnQM5zLu4vW2uQyu7-11" value="Private Network" style="curved=1;startArrow=none;endArrow=block;exitX=0.5;exitY=1.01;entryX=0;entryY=0.12;rounded=0;" edge="1" parent="1" source="ZttYnQM5zLu4vW2uQyu7-8" target="ZttYnQM5zLu4vW2uQyu7-9">
          <mxGeometry relative="1" as="geometry">
            <Array as="points">
              <mxPoint x="600" y="428" />
            </Array>
          </mxGeometry>
        </mxCell>
        <mxCell id="ZttYnQM5zLu4vW2uQyu7-12" value="Outbound Traffic" style="curved=1;dashed=1;dashPattern=2 3;startArrow=none;endArrow=block;exitX=0;exitY=1;entryX=0.5;entryY=0.01;rounded=0;" edge="1" parent="1" source="ZttYnQM5zLu4vW2uQyu7-7" target="ZttYnQM5zLu4vW2uQyu7-5">
          <mxGeometry relative="1" as="geometry">
            <Array as="points">
              <mxPoint x="307" y="216" />
            </Array>
          </mxGeometry>
        </mxCell>
        <mxCell id="ZttYnQM5zLu4vW2uQyu7-13" value="Internet" style="curved=1;startArrow=none;endArrow=block;exitX=0.5;exitY=1.01;entryX=0.5;entryY=0;rounded=0;" edge="1" parent="1" source="ZttYnQM5zLu4vW2uQyu7-5" target="ZttYnQM5zLu4vW2uQyu7-4">
          <mxGeometry relative="1" as="geometry">
            <Array as="points" />
          </mxGeometry>
        </mxCell>
      </root>
    </mxGraphModel>
  </diagram>
</mxfile>
